<?xml version="1.0" encoding="UTF-8"?>
<svg id="Camada_2" data-name="Camada 2" xmlns="http://www.w3.org/2000/svg" viewBox="0 0 175.86 161.19">
  <defs>
    <style>
      .cls-1 {
        fill: #a6de25;
      }
    </style>
  </defs>
  <g id="Camada_1-2" data-name="Camada 1">
    <g>
      <g>
        <path class="cls-1" d="M11.15,76.8h-.77l-.28,10.32H1.74c.21-9.06.21-17.98.21-26.97s0-16.66-.14-25.65l9.55-.84-.07,7.32c0,2.86-.21,5.65-.84,11.57h.77c2.79-6.97,7.6-10.53,15.54-10.53,11.78,0,17.91,7.95,17.91,22.93s-6.13,23-18.33,23c-7.53,0-12.62-3.48-15.19-11.15ZM33.74,77.07c.98-3.69,1.53-7.39,1.53-12.13,0-10.46-4.04-15.4-12.41-15.4-3.76,0-6.97,1.53-9.83,4.53-1.32,3.55-1.74,6.69-1.74,10.87,0,10.32,3.97,15.33,12.41,15.33,3.69,0,6.9-.84,10.04-3.21Z"/>
        <path class="cls-1" d="M50.33,64.6c0-7.46,0-14.43-.21-21.68h9.69l-1.05,10.39h.63c3.35-8.16,7.32-11.29,13.59-11.29,9.06,0,13.94,5.92,14.01,19.17l-9.76,1.19c-.07-9.48-2.58-11.99-7.74-11.99-4.11,0-7.67,2.16-10.04,8.99,0,13.52.07,20.42.35,27.74h-9.76c.28-6.62.28-14.85.28-22.51Z"/>
        <path class="cls-1" d="M90.13,75.89c0-7.67,4.32-12.83,16.38-12.83,5.02,0,9.62.49,13.66.98v-1.53c0-9.48-3.21-13.94-10.59-13.94-3.14,0-5.65.63-8.29,2.44-.91,2.93-1.46,5.65-1.6,9.27l-9.48-1.53c1.6-10.94,8.22-16.94,20.42-16.94,13.1,0,18.68,6.55,18.68,17.91v15.26c0,4.18.07,7.81.28,12.06h-9.83l1.53-12.55h-.77c-2.09,7.32-8.08,13.52-17.36,13.52-7.46,0-13.03-4.04-13.03-12.13ZM120.17,71.08v-2.79c-4.32-.14-7.74-.21-12.34-.21-5.99,0-8.57,2.3-8.57,6.13s2.72,5.92,6.83,5.92c5.51,0,9.69-2.58,14.08-9.06Z"/>
        <path class="cls-1" d="M136.48,64.6c0-7.46,0-14.43-.21-21.68h9.69l-1.04,10.39h.63c3.42-8.08,8.64-11.29,15.54-11.29,10.18,0,14.5,6,14.5,17.84,0,9.9.07,18.4.28,27.25h-9.69c.21-8.85.21-14.92.21-25.51,0-8.09-2.23-11.78-8.57-11.78-5.58,0-9.83,3.07-12.2,9.55,0,13.52.07,20.42.35,27.74h-9.76c.28-6.62.28-14.85.28-22.51Z"/>
        <path class="cls-1" d="M0,127.95C0,112.96,6.41,105.01,17.91,105.01c7.88,0,12.76,3.55,15.54,10.53h.77c-.63-5.92-.84-8.71-.84-11.57l-.07-7.04,9.55-.84c-.14,9.06-.14,17.77-.14,27.04s0,17.91.21,26.97h-9.55l.84-10.46h-.77c-2.51,7.25-7.67,11.29-15.54,11.29C6.14,150.95,0,143,0,127.95ZM31.86,138.05c1.05-3.35,1.53-6.55,1.53-10.73,0-9.83-3.97-14.78-12.41-14.78-3.76,0-6.9,1.12-9.34,2.79-1.67,4.81-2.23,7.95-2.23,12.62,0,10.32,4.04,15.33,12.41,15.33,3.76,0,7.18-1.32,10.04-5.23Z"/>
        <path class="cls-1" d="M48.93,97.63c0-2.86,1.39-4.32,5.86-4.32s5.92,1.46,5.92,4.32c0,3.35-1.39,4.81-5.92,4.81s-5.86-1.46-5.86-4.81ZM50.33,128.02c0-7.39-.07-14.92-.28-22.17l4.81.14,4.81-.14c-.21,7.25-.28,14.78-.28,22.17s.07,14.78.28,22.1h-9.62c.21-7.32.28-14.78.28-22.1Z"/>
        <path class="cls-1" d="M66.98,127.6c0-7.46,0-14.43-.21-21.68h9.69l-1.04,10.39h.63c3.42-8.08,8.64-11.29,15.54-11.29,10.18,0,14.5,6,14.5,17.84,0,9.9.07,18.4.28,27.25h-9.69c.21-8.85.21-14.92.21-25.51,0-8.09-2.23-11.78-8.57-11.78-5.58,0-9.83,3.07-12.2,9.55,0,13.52.07,20.42.35,27.74h-9.76c.28-6.62.28-14.85.28-22.51Z"/>
        <path class="cls-1" d="M119.68,131.85l-2.09,4.53c-.35.56-.14.98.28.98l22.93-.07c5.92,0,9.97,3.97,9.97,9.13,0,8.43-11.08,14.78-21.68,14.78-5.79,0-15.33-2.72-18.54-9.34l6.34-3.42c4.04,5.09,9.69,5.85,14.43,5.85,3.9,0,7.18-1.39,8.22-2.23,2.09-1.6,2.86-2.51,2.86-4.67,0-1.67-1.81-2.93-6.06-2.93h-20.28c-3.35,0-5.51-3.49-2.23-7.95l4.11-5.72c-3.55-2.51-4.95-6.62-4.95-11.71,0-8.78,5.92-14.29,16.59-14.29,9.62,0,15.12,5.51,14.43,13.73l.63.07c.42-8.5,4.88-14.01,12.2-14.01l-.07,8.5c-5.02-.21-9.34,3.76-11.5,6.97.07,8.71-6.55,13.59-15.68,13.59-4.18,0-7.46-.63-9.9-1.81ZM135.43,126.69c1.32-1.88,2.09-4.32,2.09-7.39,0-5.23-3.28-9.2-8.36-9.2-2.37,0-4.53.56-6.06,1.46-1.6,1.88-2.58,4.39-2.58,7.67,0,5.58,3.07,9.13,9.2,9.13,1.74,0,4.18-.56,5.72-1.67Z"/>
      </g>
      <rect class="cls-1" width="175.86" height="20.15"/>
    </g>
  </g>
</svg>