<?xml version="1.0" encoding="UTF-8"?>
<svg id="Camada_2" data-name="Camada 2" xmlns="http://www.w3.org/2000/svg" viewBox="0 0 176.55 131.49">
  <defs>
    <style>
      .cls-1 {
        font-family: Hagrid-Medium, Hagrid;
        font-size: 21.68px;
        font-weight: 500;
      }

      .cls-1, .cls-2 {
        fill: #a6de25;
      }
    </style>
  </defs>
  <g id="Camada_1-2" data-name="Camada 1">
    <g>
      <g>
        <path class="cls-2" d="M1.12,30.32c0-7.6-.21-19.87-.42-26.7h20.77c16.03,0,24.33,8.09,24.33,26.63s-8.29,26.56-24.33,26.56H.7c.21-7.25.42-19.03.42-26.49ZM36.31,30.25c0-15.06-5.37-20.35-16.94-20.35h-9.13v40.57h9.2c11.15,0,16.87-5.02,16.87-20.21Z"/>
        <path class="cls-2" d="M50.39,34.57c0-14.92,7.81-22.93,20.84-22.93s20.28,7.6,20.49,21.75l-31.92,2.37c.28,10.25,4.04,15.19,11.85,15.19,3.62,0,6.48-1.05,8.99-2.72.77-3.07,1.19-5.37,1.39-8.09h9.34c-1.53,11.99-8.92,17.43-20.14,17.43-13.03,0-20.84-8.02-20.84-23ZM70.82,18.26c-3.69,0-6.76.98-9.55,3.42-.7,2.86-1.12,5.58-1.32,8.64l22.23-1.67c-1.25-6.97-4.88-10.39-11.36-10.39Z"/>
        <path class="cls-2" d="M95.63,34.57c0-14.92,7.74-22.93,20.84-22.93,12.06,0,18.54,5.51,20.21,16.94l-9.06,1.05c-1.25-7.81-4.74-11.36-11.57-11.36-3.62,0-6.69.91-9.62,3.42-.91,4.04-1.39,7.81-1.39,12.9,0,11.08,3.69,16.38,11.57,16.38,3.62,0,6.62-.84,9.55-2.86.56-2.93,1.05-5.37,1.19-7.95h9.41c-1.46,11.43-8.36,17.43-20.56,17.43-12.83,0-20.56-8.02-20.56-23Z"/>
        <path class="cls-2" d="M145.24,31.93c.72-3.46,1.46-7.21,2.05-10.46h5.56c-.07.91-.62,4.45-1.29,7.47,2.57-4.99,7.01-8.17,12.41-8.17l-1.28,5.99c-6.73.5-11.8,5.57-13.48,13.49l-3.5,16.55h-5.77l5.3-24.88Z"/>
        <path class="cls-2" d="M164.77,4.32c0-2.86,1.39-4.32,5.85-4.32s5.93,1.46,5.93,4.32c0,3.35-1.39,4.81-5.93,4.81s-5.85-1.46-5.85-4.81ZM166.17,34.71c0-7.39-.07-14.92-.28-22.17l4.81.14,4.81-.14c-.21,7.25-.28,14.78-.28,22.17s.07,14.78.28,22.1h-9.62c.21-7.32.28-14.78.28-22.1Z"/>
        <path class="cls-2" d="M.21,100.59c0-8.99,0-17.91-.21-26.97h9.55l-.84,10.46h.77c2.51-7.25,7.6-11.29,15.54-11.29,11.78,0,17.91,7.95,17.91,23s-6.41,22.93-17.91,22.93c-7.95,0-12.76-3.55-15.54-10.53h-.77c.63,5.92.84,8.78.84,11.57v7.88H0c.21-9.97.21-17.77.21-27.04ZM31.3,108.4c1.6-4.67,2.23-7.95,2.23-12.55,0-10.39-4.04-15.4-12.48-15.4-3.69,0-7.11,1.32-9.97,5.23-1.05,3.35-1.53,6.55-1.53,10.73,0,9.83,3.97,14.78,12.41,14.78,3.76,0,6.76-1.04,9.34-2.79Z"/>
        <path class="cls-2" d="M60.23,83.36h-7.79l2.35-2.52h5.92l1.94-9.63,7.05-1.7-2.25,11.33h12.83l-2.79,3c-2.93-.32-5.53-.48-7.79-.48h-2.76l-4.63,23.31c-.48,2.41-.71,4.1-.71,5.07,0,1.79.79,2.69,2.38,2.69,2.45,0,5.8-1.82,10.04-5.45l-.61,3.13c-4.4,4.36-8.63,6.53-12.69,6.53s-5.79-2.13-5.79-6.4c0-1.52.25-3.54.75-6.06l4.56-22.84Z"/>
        <path class="cls-2" d="M79.29,106.86c0-7.88,4.6-12.62,16.31-12.62,5.09,0,9.48.42,13.8.84v-2.65c0-9.55-3.42-14.22-11.5-14.22-3.21,0-5.85.7-8.36,2.44-1.53,2.72-2.44,5.79-2.65,9.83l-7.46-1.19c1.46-10.46,7.81-16.31,19.24-16.31,12.41,0,17.77,6.27,17.77,17.5v14.08c0,4.53.07,8.57.35,13.17h-7.74l1.32-12.9h-.7c-2.72,7.88-8.43,13.94-17.63,13.94-7.67,0-12.76-4.32-12.76-11.92ZM109.33,101.85l.07-3.35c-4.6-.14-8.02-.21-12.83-.21-6.97,0-10.11,2.58-10.11,7.32s2.93,6.97,7.74,6.97c6.27,0,10.53-3.14,15.13-10.73Z"/>
      </g>
      <text class="cls-1" transform="translate(122.2 118.66)"><tspan x="0" y="0">©</tspan></text>
    </g>
  </g>
</svg>