<?xml version="1.0" encoding="UTF-8"?>
<svg id="Camada_2" data-name="Camada 2" xmlns="http://www.w3.org/2000/svg" viewBox="0 0 298.77 82.19">
  <defs>
    <style>
      .cls-1 {
        fill: #fff;
      }
    </style>
  </defs>
  <g id="Camada_1-2" data-name="Camada 1">
    <g>
      <g>
        <path class="cls-1" d="M.42,30.32C.42,22.72.21,10.46,0,3.62h20.77c16.03,0,24.33,8.08,24.33,26.63s-8.29,26.56-24.33,26.56H0c.21-7.25.42-19.03.42-26.49ZM35.62,30.25c0-15.06-5.37-20.35-16.94-20.35h-9.13v40.57h9.2c11.15,0,16.87-5.02,16.87-20.21Z"/>
        <path class="cls-1" d="M49.7,34.57c0-14.92,7.81-22.93,20.84-22.93s20.28,7.6,20.49,21.75l-31.92,2.37c.28,10.25,4.04,15.19,11.85,15.19,3.62,0,6.48-1.04,8.99-2.72.77-3.07,1.19-5.37,1.39-8.09h9.34c-1.53,11.99-8.92,17.43-20.14,17.43-13.03,0-20.84-8.02-20.84-23ZM70.12,18.26c-3.69,0-6.76.98-9.55,3.42-.7,2.86-1.12,5.58-1.32,8.64l22.23-1.67c-1.25-6.97-4.88-10.39-11.36-10.39Z"/>
        <path class="cls-1" d="M94.93,34.57c0-14.92,7.74-22.93,20.84-22.93,12.06,0,18.54,5.51,20.21,16.94l-9.06,1.05c-1.25-7.81-4.74-11.36-11.57-11.36-3.62,0-6.69.91-9.62,3.42-.91,4.04-1.39,7.81-1.39,12.89,0,11.08,3.69,16.38,11.57,16.38,3.62,0,6.62-.84,9.55-2.86.56-2.93,1.05-5.37,1.19-7.95h9.41c-1.46,11.43-8.36,17.43-20.56,17.43-12.83,0-20.56-8.02-20.56-23Z"/>
        <path class="cls-1" d="M144.54,31.93c.72-3.46,1.46-7.21,2.05-10.46h5.56c-.07.91-.62,4.45-1.29,7.47,2.57-4.99,7.01-8.17,12.41-8.17l-1.28,5.99c-6.73.5-11.8,5.57-13.48,13.49l-3.5,16.55h-5.77l5.3-24.88Z"/>
        <path class="cls-1" d="M164.08,4.32c0-2.86,1.39-4.32,5.85-4.32s5.92,1.46,5.92,4.32c0,3.35-1.39,4.81-5.92,4.81s-5.85-1.46-5.85-4.81ZM165.47,34.71c0-7.39-.07-14.92-.28-22.17l4.81.14,4.81-.14c-.21,7.25-.28,14.78-.28,22.17s.07,14.78.28,22.1h-9.62c.21-7.32.28-14.78.28-22.1Z"/>
        <path class="cls-1" d="M182.06,39.59c0-8.99,0-17.91-.21-26.97h9.55l-.84,10.46h.77c2.51-7.25,7.6-11.29,15.54-11.29,11.78,0,17.91,7.95,17.91,23s-6.41,22.93-17.91,22.93c-7.95,0-12.76-3.55-15.54-10.53h-.77c.63,5.92.84,8.78.84,11.57v7.88h-9.55c.21-9.97.21-17.77.21-27.04ZM213.15,47.4c1.6-4.67,2.23-7.95,2.23-12.55,0-10.39-4.04-15.4-12.48-15.4-3.69,0-7.11,1.32-9.97,5.23-1.05,3.35-1.53,6.55-1.53,10.73,0,9.83,3.97,14.78,12.41,14.78,3.76,0,6.76-1.04,9.34-2.79Z"/>
        <path class="cls-1" d="M242.08,22.36h-7.79l2.35-2.52h5.92l1.94-9.63,7.05-1.7-2.25,11.33h12.83l-2.79,3c-2.93-.32-5.53-.48-7.79-.48h-2.76l-4.63,23.31c-.48,2.41-.71,4.1-.71,5.07,0,1.79.79,2.69,2.38,2.69,2.45,0,5.8-1.81,10.04-5.45l-.61,3.13c-4.4,4.36-8.63,6.53-12.69,6.53s-5.79-2.13-5.79-6.4c0-1.52.25-3.54.75-6.06l4.56-22.84Z"/>
        <path class="cls-1" d="M261.14,45.86c0-7.88,4.6-12.62,16.31-12.62,5.09,0,9.48.42,13.8.84v-2.65c0-9.55-3.42-14.22-11.5-14.22-3.21,0-5.85.7-8.36,2.44-1.53,2.72-2.44,5.79-2.65,9.83l-7.46-1.19c1.46-10.46,7.81-16.31,19.24-16.31,12.41,0,17.77,6.27,17.77,17.5v14.08c0,4.53.07,8.57.35,13.17h-7.74l1.32-12.89h-.7c-2.72,7.88-8.43,13.94-17.63,13.94-7.67,0-12.76-4.32-12.76-11.92ZM291.18,40.85l.07-3.35c-4.6-.14-8.02-.21-12.83-.21-6.97,0-10.11,2.58-10.11,7.32s2.93,6.97,7.74,6.97c6.27,0,10.52-3.14,15.12-10.73Z"/>
      </g>
      <g>
        <path class="cls-1" d="M206.67,71.91c0-1.85-.06-5.24-.11-7.27h6.21c4.21,0,5.6,1.14,5.6,3.52,0,1.92-1.2,3.29-4.38,3.41v.25c3.31.02,4.72,1.29,4.72,3.48,0,2.51-1.49,3.87-5.64,3.87h-6.51c.06-2.04.11-5.41.11-7.26ZM215.71,68.65c0-1.62-1.1-2.3-3.37-2.3h-3.2v4.68h3.18c2.46,0,3.39-.82,3.39-2.38ZM216.11,75.01c0-1.66-1.09-2.44-3.54-2.44h-3.43v4.88h3.47c2.46,0,3.5-.74,3.5-2.44Z"/>
        <path class="cls-1" d="M220.28,73.01c0-2.04,0-3.94-.06-5.92h2.65l-.29,2.84h.17c.91-2.23,2-3.08,3.71-3.08,2.48,0,3.81,1.62,3.83,5.24l-2.67.32c-.02-2.59-.7-3.28-2.11-3.28-1.12,0-2.09.59-2.74,2.46,0,3.69.02,5.58.1,7.58h-2.67c.08-1.81.08-4.06.08-6.15Z"/>
        <path class="cls-1" d="M231.16,76.1c0-2.09,1.18-3.5,4.48-3.5,1.37,0,2.63.13,3.73.27v-.42c0-2.59-.88-3.81-2.89-3.81-.86,0-1.54.17-2.27.67-.25.8-.4,1.54-.44,2.53l-2.59-.42c.44-2.99,2.25-4.63,5.58-4.63,3.58,0,5.1,1.79,5.1,4.89v4.17c0,1.14.02,2.13.08,3.29h-2.69l.42-3.43h-.21c-.57,2-2.21,3.69-4.74,3.69-2.04,0-3.56-1.1-3.56-3.31ZM239.36,74.79v-.76c-1.18-.04-2.11-.06-3.37-.06-1.64,0-2.34.63-2.34,1.68s.74,1.62,1.87,1.62c1.5,0,2.65-.71,3.85-2.48Z"/>
        <path class="cls-1" d="M243.82,73.01c0-2.04,0-3.94-.06-5.92h2.65l-.29,2.84h.17c.93-2.21,2.36-3.08,4.25-3.08,2.78,0,3.96,1.64,3.96,4.88,0,2.7.02,5.03.08,7.45h-2.65c.06-2.42.06-4.08.06-6.97,0-2.21-.61-3.22-2.34-3.22-1.52,0-2.69.84-3.33,2.61,0,3.69.02,5.58.1,7.58h-2.67c.08-1.81.08-4.06.08-6.15Z"/>
        <path class="cls-1" d="M255.93,73.11c0-4.09,1.75-6.27,4.89-6.27,2.15,0,3.48.97,4.25,2.88h.21c-.17-1.62-.23-2.38-.23-3.16l-.02-1.92,2.61-.23c-.04,2.48-.04,4.86-.04,7.39s0,4.89.06,7.37h-2.61l.23-2.86h-.21c-.69,1.98-2.09,3.08-4.25,3.08-3.22,0-4.89-2.17-4.89-6.28ZM264.63,75.87c.29-.91.42-1.79.42-2.93,0-2.68-1.09-4.04-3.39-4.04-1.03,0-1.89.3-2.55.76-.46,1.31-.61,2.17-.61,3.45,0,2.82,1.1,4.19,3.39,4.19,1.03,0,1.96-.36,2.74-1.43Z"/>
        <path class="cls-1" d="M269.3,64.83c0-.78.38-1.18,1.6-1.18s1.62.4,1.62,1.18c0,.91-.38,1.31-1.62,1.31s-1.6-.4-1.6-1.31ZM269.68,73.13c0-2.02-.02-4.08-.08-6.06l1.31.04,1.31-.04c-.06,1.98-.08,4.04-.08,6.06s.02,4.04.08,6.04h-2.63c.06-2,.08-4.04.08-6.04Z"/>
        <path class="cls-1" d="M274.23,73.01c0-2.04,0-3.94-.06-5.92h2.65l-.29,2.84h.17c.93-2.21,2.36-3.08,4.25-3.08,2.78,0,3.96,1.64,3.96,4.88,0,2.7.02,5.03.08,7.45h-2.65c.06-2.42.06-4.08.06-6.97,0-2.21-.61-3.22-2.34-3.22-1.52,0-2.69.84-3.33,2.61,0,3.69.02,5.58.1,7.58h-2.67c.08-1.81.08-4.06.08-6.15Z"/>
        <path class="cls-1" d="M288.62,74.18l-.57,1.24c-.1.15-.04.27.08.27l6.27-.02c1.62,0,2.72,1.08,2.72,2.49,0,2.3-3.03,4.04-5.92,4.04-1.58,0-4.19-.74-5.07-2.55l1.73-.93c1.1,1.39,2.65,1.6,3.94,1.6,1.07,0,1.96-.38,2.25-.61.57-.44.78-.69.78-1.28,0-.46-.5-.8-1.66-.8h-5.54c-.91,0-1.5-.95-.61-2.17l1.12-1.56c-.97-.69-1.35-1.81-1.35-3.2,0-2.4,1.62-3.9,4.53-3.9,2.63,0,4.13,1.5,3.94,3.75l.17.02c.11-2.32,1.33-3.83,3.33-3.83l-.02,2.32c-1.37-.06-2.55,1.03-3.14,1.9.02,2.38-1.79,3.71-4.28,3.71-1.14,0-2.04-.17-2.7-.5ZM292.93,72.77c.36-.51.57-1.18.57-2.02,0-1.43-.9-2.51-2.29-2.51-.65,0-1.24.15-1.66.4-.44.51-.7,1.2-.7,2.09,0,1.52.84,2.5,2.51,2.5.48,0,1.14-.15,1.56-.46Z"/>
      </g>
    </g>
  </g>
</svg>